<!-- Generated by IcoMoon.io -->
<svg version="1.1" xmlns="http://www.w3.org/2000/svg" width="31" height="32" viewBox="0 0 31 32">
<title>graphic</title>
<path d="M29.255 12.429h-5.482v16.901h-1.819v-12.918h-5.482v12.918h-1.827v-16.421h-5.474v16.421h-1.794v-9.103h-5.482v9.103h-1.895v1.827h31.158v-1.827h-1.903v-16.901zM5.549 22.055v1.819h-1.827v-1.819h1.827zM3.722 29.331v-3.629h1.827v3.629h-1.827zM12.817 14.737v1.827h-1.819v-1.827h1.819zM10.998 29.331v-10.939h1.819v10.939h-1.819zM20.126 18.24v1.819h-1.827v-1.819h1.827zM18.299 29.331v-7.444h1.827v7.444h-1.827zM27.427 14.257v1.827h-1.827v-1.827h1.827zM25.6 29.331v-11.419h1.827v11.419h-1.827z"></path>
<path d="M25.693 0v1.819h2.341l-8.413 8.413-6.964-6.964-12.657 12.648 1.297 1.297 11.36-11.368 6.964 6.973 9.709-9.701v2.349h1.827v-5.465h-5.465z"></path>
</svg>
