<!-- Generated by IcoMoon.io -->
<svg version="1.1" xmlns="http://www.w3.org/2000/svg" width="32" height="32" viewBox="0 0 32 32">
<title>oclock</title>
<path d="M30.4-0.848h-28.809c-0.882 0-1.591 0.718-1.591 1.6v19.2c0 0.882 0.709 1.6 1.591 1.6h9.072c1.47 0 2.664 1.194 2.664 2.664 0 1.479-1.194 2.672-2.664 2.672h-0.026c-0.035 0.009-0.069 0.017-0.112 0.026l-0.086 0.026c-0.026 0.017-0.061 0.035-0.086 0.061-0.029 0.018-0.055 0.038-0.078 0.061l0-0c-0.017 0.017-0.035 0.043-0.052 0.069-0.026 0.035-0.043 0.069-0.061 0.104 0 0.009-0.009 0.009-0.009 0.017l-1.064 3.2c-0.095 0.277 0.061 0.579 0.337 0.675 0.052 0.017 0.112 0.026 0.173 0.026h12.8c0.294 0 0.528-0.233 0.528-0.536 0-0.052-0.009-0.112-0.026-0.164l-1.064-3.2c0-0.009-0.009-0.009-0.009-0.017-0.017-0.035-0.035-0.069-0.061-0.104-0.017-0.026-0.035-0.052-0.052-0.069-0.023-0.022-0.049-0.042-0.076-0.059l-0.002-0.001c-0.026-0.026-0.061-0.043-0.087-0.061-0.035-0.009-0.061-0.017-0.087-0.026l-0.121-0.026h-0.017c-1.47 0-2.664-1.194-2.664-2.672 0-1.47 1.194-2.664 2.664-2.664h9.072c0.882 0 1.591-0.718 1.591-1.6v-19.2c0-0.882-0.709-1.6-1.591-1.6zM17.6 24.216c0 1.911 1.436 3.511 3.338 3.719l0.718 2.154h-11.321l0.718-2.154c1.886-0.211 3.34-1.794 3.347-3.718v-0.001c0-1.003-0.406-1.963-1.133-2.664h5.457c-0.727 0.701-1.133 1.661-1.124 2.664zM30.928 19.952c0 0.294-0.233 0.536-0.528 0.536h-28.809c-0.294 0-0.528-0.242-0.528-0.536v-1.6h29.864v1.6zM1.064 17.289v-16.536c0-0.294 0.234-0.536 0.528-0.536h28.809c0.294 0 0.528 0.242 0.528 0.536v16.536h-29.864z"></path>
<path d="M22.564 7.178l-1.539-0.51 0.727-1.444c0.036-0.070 0.057-0.153 0.057-0.24 0-0.146-0.058-0.277-0.152-0.374l-1.513-1.513c-0.095-0.095-0.227-0.154-0.372-0.154-0.089 0-0.172 0.022-0.245 0.061l0.003-0.001-1.453 0.718-0.51-1.531c-0.071-0.215-0.268-0.367-0.501-0.372h-2.137c-0.225 0-0.432 0.147-0.502 0.372l-0.51 1.531-1.453-0.718c-0.070-0.037-0.154-0.059-0.242-0.059-0.145 0-0.277 0.059-0.372 0.154v0l-1.514 1.514c-0.094 0.096-0.152 0.228-0.152 0.374 0 0.088 0.021 0.17 0.058 0.243l-0.001-0.003 0.726 1.444-1.539 0.51c-0.216 0.078-0.363 0.277-0.363 0.51v2.128c0 0.233 0.147 0.441 0.363 0.51l1.539 0.51-0.726 1.453c-0.104 0.199-0.061 0.45 0.095 0.614l1.514 1.505c0.164 0.164 0.406 0.208 0.614 0.104l1.453-0.726 0.51 1.539c0.069 0.216 0.277 0.363 0.502 0.363h2.136c0.225 0 0.432-0.147 0.502-0.363l0.519-1.539 1.444 0.726c0.208 0.104 0.45 0.061 0.614-0.104l1.514-1.505c0.156-0.164 0.199-0.415 0.095-0.614l-0.727-1.453 1.539-0.51c0.216-0.069 0.363-0.277 0.363-0.51v-2.128c0-0.234-0.147-0.432-0.363-0.51zM21.864 9.436l-1.756 0.588c-0.213 0.074-0.364 0.273-0.364 0.508 0 0.060 0.010 0.117 0.028 0.171l-0.001-0.004c0.009 0.026 0.017 0.043 0.026 0.069l0.83 1.652-0.969 0.969-1.652-0.83c-0.070-0.035-0.152-0.055-0.238-0.055-0.207 0-0.386 0.116-0.478 0.286l-0.001 0.003-0.026 0.078-0.588 1.747h-1.358l-0.588-1.747c-0.071-0.214-0.269-0.366-0.503-0.366-0.062 0-0.121 0.011-0.175 0.030l0.004-0.001c-0.026 0.009-0.052 0.017-0.069 0.026l-1.652 0.83-0.969-0.969 0.83-1.652c0.13-0.268 0.026-0.588-0.242-0.718-0.026-0.009-0.043-0.017-0.069-0.026l-1.756-0.588v-1.367l1.756-0.588c0.277-0.087 0.432-0.389 0.337-0.675-0.009-0.018-0.017-0.041-0.025-0.065l-0.001-0.004-0.83-1.652 0.969-0.96 1.652 0.822c0.259 0.138 0.579 0.026 0.709-0.234 0.017-0.026 0.026-0.052 0.035-0.069l0.588-1.756h1.358l0.588 1.756c0.095 0.277 0.398 0.432 0.675 0.337 0.026-0.009 0.052-0.017 0.078-0.035l1.652-0.822 0.96 0.96-0.822 1.652c-0.138 0.268-0.026 0.588 0.233 0.718 0.026 0.009 0.052 0.026 0.069 0.026l1.756 0.588v1.367z"></path>
<path d="M16 5.552c-1.773 0-3.2 1.436-3.2 3.2s1.427 3.2 3.2 3.2c1.764 0 3.2-1.436 3.2-3.2-0.009-1.764-1.436-3.2-3.2-3.2zM16 10.889c-1.185 0-2.136-0.96-2.136-2.136s0.951-2.136 2.136-2.136c1.176 0 2.128 0.96 2.128 2.136s-0.951 2.136-2.128 2.136z"></path>
</svg>
